<svg width="24" height="24" viewBox="0 0 24 24" fill="none" xmlns="http://www.w3.org/2000/svg">
<path d="M15.75 2.25H8.25C7.2558 2.25119 6.30267 2.64666 5.59966 3.34966C4.89666 4.05267 4.50119 5.0058 4.5 6V15C4.50279 15.8061 4.76578 16.5898 5.24983 17.2344C5.73389 17.879 6.41314 18.35 7.1865 18.5775L5.82675 21.75H7.45875L8.74425 18.75H15.2557L16.5413 21.75H18.1733L16.8135 18.5775C17.5869 18.35 18.2661 17.879 18.7502 17.2344C19.2342 16.5898 19.4972 15.8061 19.5 15V6C19.4988 5.0058 19.1033 4.05267 18.4003 3.34966C17.6973 2.64666 16.7442 2.25119 15.75 2.25ZM8.25 3.75H15.75C16.2138 3.75138 16.6659 3.89631 17.044 4.16488C17.4222 4.43346 17.7079 4.81252 17.862 5.25H6.138C6.29209 4.81252 6.57783 4.43346 6.95599 4.16488C7.33415 3.89631 7.78617 3.75138 8.25 3.75ZM18 14.25H15.75V15.75H17.862C17.7079 16.1875 17.4222 16.5665 17.044 16.8351C16.6659 17.1037 16.2138 17.2486 15.75 17.25H8.25C7.78617 17.2486 7.33415 17.1037 6.95599 16.8351C6.57783 16.5665 6.29209 16.1875 6.138 15.75H8.25V14.25H6V12.75H18V14.25ZM18 11.25H6V6.75H18V11.25Z" fill="black"/>
</svg>
