<svg width="18" height="18" viewBox="0 0 18 18" fill="none" xmlns="http://www.w3.org/2000/svg">
<path d="M10.2975 2.63248L11.6175 5.27248C11.7975 5.63998 12.2775 5.99248 12.6825 6.05998L15.075 6.45748C16.605 6.71248 16.965 7.82248 15.8625 8.91748L14.0025 10.7775C13.6875 11.0925 13.515 11.7 13.6125 12.135L14.145 14.4375C14.565 16.26 13.5975 16.965 11.985 16.0125L9.74249 14.685C9.33749 14.445 8.66999 14.445 8.25749 14.685L6.01499 16.0125C4.40999 16.965 3.43499 16.2525 3.85499 14.4375L4.38749 12.135C4.48499 11.7 4.31249 11.0925 3.99749 10.7775L2.13749 8.91748C1.04249 7.82248 1.39499 6.71248 2.92499 6.45748L5.31749 6.05998C5.71499 5.99248 6.19499 5.63998 6.37499 5.27248L7.69499 2.63248C8.41499 1.19998 9.58499 1.19998 10.2975 2.63248Z" stroke="#292D32" strokeWidth="1.5" strokeLinecap="round" strokeLinejoin="round"/>
</svg>
