<svg width="18" height="18" viewBox="0 0 18 18" fill="none" xmlns="http://www.w3.org/2000/svg">
<path d="M14.25 5.25C14.25 5.4 14.25 5.475 14.25 5.625C14.175 6.75 13.65 7.725 12.975 8.4C12.15 9.225 11.025 9.75 9.75 9.75H7.425C7.05 9.75 6.75 10.05 6.675 10.425L6.075 14.4C6 14.7 5.85 14.925 5.55 15C5.475 15 5.4 15 5.325 15H3.9C3.45 15 3.075 14.625 3.15 14.1L4.95 3.375C5.1 2.325 6.075 1.5 7.125 1.5H10.5C12.6 1.5 14.25 3.15 14.25 5.25Z" stroke="#17191C" stroke-width="1.5" stroke-miterlimit="10"/>
<path d="M15.75 8.25C15.75 9.3 15.3 10.2 14.625 10.875C13.95 11.55 13.05 12 12 12H10.425C10.05 12 9.75 12.225 9.675 12.6L9.15 15.825C9.075 16.2 8.775 16.425 8.4 16.425H6.15C5.7 16.425 5.325 15.975 5.4 15.525L5.55 15C5.85 14.925 6.075 14.7 6.075 14.4L6.675 10.425C6.75 10.05 7.05 9.75 7.425 9.75H9.75C11.025 9.75 12.15 9.225 12.9 8.4C13.65 7.65 14.1 6.675 14.175 5.625C15.15 6.15 15.75 7.125 15.75 8.25Z" stroke="#17191C" stroke-width="1.5" stroke-miterlimit="10"/>
</svg>
