<svg width="18" height="18" viewBox="0 0 18 18" fill="none" xmlns="http://www.w3.org/2000/svg">
<path d="M10.2975 2.63297L11.6175 5.27297C11.7975 5.64047 12.2775 5.99297 12.6825 6.06047L15.075 6.45797C16.605 6.71297 16.965 7.82297 15.8625 8.91797L14.0025 10.778C13.6875 11.093 13.515 11.7005 13.6125 12.1355L14.145 14.438C14.565 16.2605 13.5975 16.9655 11.985 16.013L9.74249 14.6855C9.33749 14.4455 8.66999 14.4455 8.25749 14.6855L6.01499 16.013C4.40999 16.9655 3.43499 16.253 3.85499 14.438L4.38749 12.1355C4.48499 11.7005 4.31249 11.093 3.99749 10.778L2.13749 8.91797C1.04249 7.82297 1.39499 6.71297 2.92499 6.45797L5.31749 6.06047C5.71499 5.99297 6.19499 5.64047 6.37499 5.27297L7.69499 2.63297C8.41499 1.20047 9.58499 1.20047 10.2975 2.63297Z" stroke="#292D32" strokeWidth="1.5" strokeLinecap="round" strokeLinejoin="round"/>
</svg>
