<svg width="414" height="268" viewBox="0 0 414 268" fill="none" xmlns="http://www.w3.org/2000/svg">
<g clip-path="url(#clip0_663_12342)">
<path d="M-11.5 59.5L-24 228L459 268L472.5 178.5C472.5 178.5 452.831 147.194 446.5 148.223C446.5 148.223 491.526 179.544 462.5 162.5L438.5 112L446.5 99.5C446.5 99.5 350 -9.5 320.573 1.08472C291.146 11.6694 265.5 95 265.5 95L213.5 63.3983C213.5 63.3983 141.5 20.5 122 16.5C102.5 12.5 -11.5 59.5 -11.5 59.5Z" fill="url(#paint0_linear_663_12342)"/>
<path d="M313.511 197.085C312.021 200.086 310.739 201.301 308.815 201.301C307.175 201.301 306.088 200.671 303.552 198.3C302.926 197.668 302.248 197.091 301.525 196.574C301.005 197.251 300.574 197.993 300.243 198.78C299.139 201.032 297.694 202.337 296.307 202.322C295.585 202.189 294.895 201.913 294.279 201.512C292.446 200.401 288.629 194.713 288.778 193.348C288.852 192.822 289.061 192.342 289.27 192.267C290.202 192.95 290.997 193.807 291.61 194.789C294.07 198.09 295.322 199.291 296.307 199.291C297.291 199.291 298.2 198.059 298.648 196.634C299.095 195.208 300.84 193.528 301.629 193.528C302.575 193.822 303.438 194.336 304.149 195.028C307.13 197.504 307.921 198.03 308.934 198.03C309.948 198.03 310.023 197.805 311.245 195.194C312.737 192.118 313.198 191.472 314.033 191.802C314.869 192.132 314.839 194.428 313.571 197.085H313.511ZM255.457 229.874C253.593 231.87 251.908 232.244 250.104 231.075C249.672 230.85 249.291 230.539 248.985 230.159C248.83 229.786 248.608 229.446 248.33 229.153L247.675 228.358L246.541 229.228C245.05 230.429 243.56 230.383 242.515 229.108C241.472 227.833 240.682 224.876 241.263 224.172C241.844 223.466 242.098 223.736 243.067 225.867C243.544 226.902 244.081 227.728 244.275 227.728C244.909 227.487 245.503 227.147 246.033 226.722C246.577 226.27 247.198 225.924 247.868 225.702C248.652 226.127 249.346 226.703 249.91 227.398C250.501 228.182 251.312 228.772 252.236 229.093C253.146 229.093 254.339 227.713 255.754 225.042C256.783 223.091 257.484 222.445 258.125 222.835C259.139 223.436 257.514 227.697 255.516 229.874H255.457ZM318.074 245C318.163 245 321.726 240.079 325.976 234.076C338.723 216.068 377.695 232.214 385 221.5L361.07 183.534L359.178 182.753C358.146 182.146 356.911 181.993 355.763 182.333C353.079 182.978 351.708 181.868 351.201 178.657L350.978 177.292L349.397 177.471C347.429 177.711 346.415 177.231 345.819 175.7C344.805 173.254 345.581 168.723 346.669 170.763C346.885 171.235 347.007 171.744 347.027 172.264C346.983 173.342 347.475 174.371 348.339 175.01C348.911 175.077 349.49 175.02 350.039 174.844C350.666 174.567 351.39 174.629 351.962 175.01C352.882 175.985 353.414 177.267 353.453 178.611C353.453 179.617 354.332 180.038 355.51 179.617C356.828 179.062 358.328 179.174 359.55 179.917C362.532 181.297 372.527 223.301 377 216.487L393 212.362L370.195 167.792C366.781 164.79 358.12 160.288 352.305 158.383C343.076 155.382 331.657 155.231 320.072 157.842C301.94 161.751 285.096 170.241 271.125 182.513C265.307 188.061 260.075 194.201 255.517 200.836C253.145 204.361 251.366 208.255 250.253 212.362C250.06 213.621 249.418 214.417 248.896 214.057C239.549 207.484 239.146 207.304 234.524 207.334C227.443 207.334 221.926 210.2 216.44 216.487C214.353 218.888 214.129 218.589 218.527 219.248C223.651 220.304 228.21 223.221 231.333 227.443C234.503 232.065 236.592 237.35 237.446 242.899C237.551 243.905 237.789 244.715 237.968 244.715C238.604 244.41 239.188 244.005 239.698 243.514C242.842 240.815 246.951 239.54 251.058 239.989C253.415 240.322 255.599 241.423 257.276 243.124L258.93 244.625L269.366 244.46C275.062 244.355 279.713 244.189 279.713 244.069C279.713 243.95 279.475 243.035 279.206 242.015C278.55 239.553 278.566 236.941 279.206 236.011C280.22 234.511 281.741 235.171 283.59 237.737L284.26 238.698L285.185 235.366C286.259 231.524 289.658 224.276 290.895 223.12C292.579 221.62 293.876 222.85 293.876 226.122C293.876 227.157 293.489 230.624 293.041 233.911C292.594 237.197 292.192 239.914 292.192 240.138C292.192 240.363 292.937 239.793 293.847 239.027C296.187 237.062 299.244 235.275 300.257 235.275C301.126 235.177 301.948 235.693 302.241 236.522C302.792 237.556 302.732 238.502 301.972 241.399C301.599 242.779 301.302 244.025 301.302 244.175C303.898 244.426 306.506 244.511 309.114 244.43C311.896 244.34 314.682 244.45 317.447 244.76C317.642 244.873 317.854 244.954 318.074 245Z" fill="url(#paint1_linear_663_12342)"/>
<path d="M220.21 229.344C218.314 231.932 215.897 232.75 213.612 231.574C212.746 231.051 211.944 230.427 211.225 229.716L209.852 228.376L208.359 229.224C206.448 230.326 205.016 230.326 203.717 229.224C201.671 227.513 200.284 221.057 202.224 222.292C202.686 222.953 203.02 223.696 203.209 224.479C204.015 227.008 205.074 228.198 206.299 227.9C206.941 227.7 207.55 227.405 208.105 227.022C209.132 226.148 210.653 226.179 211.642 227.098C212.72 228.345 214.135 229.259 215.717 229.73C216.986 229.73 218.031 228.852 219.509 226.502C220.986 224.152 221.344 224.062 222.016 225.118C222.419 225.833 221.837 227.128 220.21 229.344ZM142.012 208.903C141.345 210.015 139.917 210.408 138.773 209.796C137.049 208.639 135.672 207.041 134.787 205.169C133.294 202.521 133.071 202.521 131.802 205.021C130.533 207.52 129.488 208.592 128.413 208.592C127.339 208.592 125.517 206.641 123.234 203.086C120.951 199.531 120.651 198.624 121.547 198.297C122.443 197.969 123.13 198.892 124.951 201.673C126.771 204.454 128.04 205.898 128.622 205.898C128.832 205.898 129.294 205.273 129.637 204.5C130.101 203.559 130.636 202.654 131.235 201.792C132.04 200.692 132.339 200.498 133.249 200.587C134.16 200.677 134.339 200.706 137.534 205.05C139.683 208.025 140.518 207.847 141.265 204.41C142.012 200.974 143.131 199.636 143.952 201.167C144.683 202.447 143.414 207.327 142.012 208.903ZM77.5443 174.136C75.6639 175.073 74.8584 175.164 73.6336 174.583C72.4099 174.003 71.5441 171.891 71.1861 168.514C71.0071 166.817 70.7829 165.226 70.7084 164.973C70.634 164.72 69.7983 165.211 68.3353 166.535C66.1411 168.543 64.3794 169.629 63.3054 169.629C62.2304 169.629 60.8568 167.814 60.4536 166.327C59.9317 161.791 59.9826 157.208 60.6034 152.686C61.1404 150.185 61.4692 149.62 62.2154 149.904C62.6186 150.052 62.6629 151.212 62.5291 156.747C62.2898 166.936 62.8127 167.888 66.6188 164.304C69.186 161.879 70.1413 161.224 71.0966 161.224C72.0519 161.224 73.1409 162.935 73.3652 165.568C73.6789 168.99 74.2008 171.222 74.7689 171.444C75.336 171.667 77.0073 170.894 78.396 169.734C78.9019 169.265 79.5708 169.01 80.2614 169.019C80.9773 169.109 81.1563 169.317 81.2458 170.225C81.3956 171.564 80.2161 172.812 77.5443 174.136ZM29.0345 225.357C27.7871 226.083 26.358 226.438 24.9146 226.383C23.8953 226.399 22.8825 226.222 21.9291 225.863C21.4223 225.579 20.4368 224.985 19.7802 224.539C18.2869 223.483 17.8102 223.498 15.227 224.716C10.8538 226.77 8.98838 225.892 6.37593 220.522C4.70464 217.115 4.58499 216.654 5.28686 216.654C5.98779 216.654 6.62935 217.531 7.66002 219.629C8.1923 220.687 8.83765 221.685 9.58568 222.604C10.914 224.092 12.1378 224.166 15.048 222.783C17.9591 221.399 18.7505 221.504 21.0191 223.036C23.6456 224.821 25.4969 224.791 29.6911 222.887C30.7105 222.329 31.8146 221.943 32.9602 221.742C33.2881 222.204 30.9893 224.345 29.0345 225.357ZM248.808 218.394C244.884 218.742 241.23 220.541 238.57 223.437C238.051 224.04 237.482 224.597 236.868 225.104C236.316 225.104 235.613 223.021 235.032 219.718C233.658 211.715 231.658 207.311 227.435 203.072C224.817 200.16 221.256 198.254 217.374 197.686C211.717 196.675 204.388 198.311 196.477 202.343C189.119 206.106 181.103 213.158 178.864 217.859C177.879 219.898 177.372 219.792 177.372 217.502C177.301 213.595 177.44 209.687 177.79 205.794C178.27 198.286 178.036 190.75 177.088 183.286C176.894 182.185 176.536 180.057 176.282 178.585C174.85 170.77 172.475 163.158 169.207 155.913C164.074 145.493 156.248 136.626 146.534 130.222C139.923 125.936 132.674 122.718 125.055 120.685C111.83 117.279 95.7401 117.1 79.7234 120.224C58.006 124.449 36.6759 133.197 22.8251 143.536C12.9283 150.974 1.71911 164.363 -8.23704 180.935C-14.8629 192.356 -20.7793 204.17 -25.9542 216.312C-27.9242 220.938 -28.0146 221.325 -27.9986 223.869C-27.6444 229.733 -25.4691 235.343 -21.7751 239.921L-20.0736 241.84L-8.54982 241.944C-2.20663 242.019 4.27127 242.019 5.86908 241.944C7.46594 241.87 18.8098 241.735 31.0939 241.617L53.4839 241.379L53.2899 240.427C53.1843 239.892 52.9017 237.793 52.6775 235.741C52.3195 232.542 52.3346 231.903 52.767 231.143C53.857 229.195 55.6027 230.117 58.3348 234.119C58.8511 234.976 59.4729 235.765 60.1861 236.469C60.6449 235.6 60.9718 234.667 61.1555 233.703C62.1108 230.161 62.6478 229.343 63.7821 229.478C64.9164 229.611 66.2608 231.53 67.2905 234.58C67.5213 235.49 67.949 236.337 68.5444 237.065C69.1266 237.287 70.7829 235.577 74.6191 230.637C79.9476 223.853 81.4258 222.709 82.8135 224.3C83.7095 225.312 83.8583 226.383 84.0524 233.955L84.2615 241.393L119.054 241.483L153.847 241.573L153.639 238.597C153.441 236.889 153.558 235.159 153.982 233.494C155.057 229.329 157.759 226.458 159.744 227.365C160.878 227.885 161.818 229.998 162.131 232.721C162.162 233.434 162.288 234.139 162.505 234.818C163.335 234.242 164.131 233.621 164.893 232.959C170.014 228.748 174.178 227.93 176.266 230.728C176.864 231.545 176.938 232.126 176.909 236.589V241.542H261.049L261.6 240.471C262.093 239.548 262.109 238.984 261.764 236.366C260.258 224.716 255.615 218.394 248.808 218.394Z" fill="url(#paint2_linear_663_12342)"/>
<path d="M180.064 233.184L179.853 236L182.704 233.184C184.573 231.371 186.553 229.674 188.632 228.099C194.864 223.637 202.005 220.552 209.566 219.056L212.296 218.67L213.547 216.818C216.21 213.355 219.394 210.312 222.989 207.79C226.431 205.753 230.347 204.621 234.362 204.5C239.309 204.263 241.677 204.856 244.92 207.078C245.955 207.779 246.939 208.552 247.861 209.391C248.646 210.236 249.098 210.311 249.098 209.57C249.992 206.53 251.301 203.622 252.989 200.927C255.588 196.789 258.508 192.854 261.722 189.157L264 186.459L260.681 182.798C255.598 177.209 251.511 174.14 246.217 171.976C241.298 170.209 236.209 168.938 231.029 168.181C226.205 167.838 221.359 167.982 216.564 168.612C212.565 169.433 208.678 170.711 204.98 172.422C195.811 176.706 187.636 184.977 180.848 196.836C178.722 200.557 178.706 200.705 179.431 205.508C180.62 214.686 180.831 223.961 180.064 233.184Z" fill="url(#paint3_linear_663_12342)"/>
<path d="M350.013 201.977L363.443 206.09C365.251 206.642 367.18 206.643 368.987 206.089L382.418 201.976C383.205 201.736 383.206 200.619 382.418 200.378L368.986 196.268C367.181 195.713 365.249 195.714 363.442 196.268L350.013 200.379C349.225 200.621 349.225 201.736 350.013 201.977Z" fill="url(#paint4_linear_663_12342)"/>
<path d="M353.516 187.405L363.091 197.682C364.38 199.064 366.05 200.029 367.892 200.453L381.58 203.607C382.382 203.792 382.941 202.826 382.379 202.223L372.802 191.947C371.516 190.564 369.842 189.599 368.001 189.175L354.314 186.021C353.512 185.836 352.954 186.802 353.516 187.405Z" fill="url(#paint5_linear_663_12342)"/>
<path d="M359.055 180.387L365.643 192.792C366.531 194.46 367.894 195.825 369.564 196.712L381.97 203.3C382.696 203.687 383.486 202.898 383.099 202.17L376.508 189.766C375.624 188.097 374.257 186.732 372.588 185.846L360.184 179.257C359.457 178.87 358.668 179.659 359.055 180.387Z" fill="url(#paint6_linear_663_12342)"/>
<path d="M371.18 171.593L370.684 185.63C370.618 187.518 371.116 189.382 372.119 190.984L379.568 202.893C380.004 203.591 381.083 203.303 381.112 202.48L381.605 188.441C381.675 186.554 381.173 184.688 380.171 183.086L372.723 171.179C372.286 170.48 371.209 170.769 371.18 171.593Z" fill="url(#paint7_linear_663_12342)"/>
<path d="M379.169 170.834L375.056 184.264C374.504 186.072 374.503 188.001 375.057 189.808L379.17 203.239C379.41 204.026 380.527 204.027 380.768 203.239L384.878 189.807C385.433 188.002 385.432 186.07 384.878 184.263L380.767 170.833C380.525 170.046 379.41 170.046 379.169 170.834Z" fill="url(#paint8_linear_663_12342)"/>
<path d="M328.482 222.723L342.511 223.42C344.398 223.512 346.269 223.041 347.885 222.062L359.9 214.783C360.604 214.358 360.331 213.275 359.508 213.234L345.478 212.54C343.593 212.443 341.72 212.918 340.103 213.898L328.09 221.174C327.386 221.601 327.659 222.682 328.482 222.723Z" fill="url(#paint9_linear_663_12342)"/>
<path d="M328.309 207.736L340.109 215.354C341.698 216.378 343.553 216.905 345.443 216.865L359.487 216.569C360.309 216.553 360.615 215.479 359.922 215.032L348.119 207.416C346.534 206.389 344.675 205.864 342.785 205.904L328.744 206.199C327.92 206.216 327.616 207.289 328.309 207.736Z" fill="url(#paint10_linear_663_12342)"/>
<path d="M331.96 199.575L341.386 209.988C342.655 211.388 344.312 212.378 346.147 212.828L359.789 216.177C360.588 216.374 361.16 215.416 360.608 214.805L351.178 204.393C349.913 202.991 348.253 202.003 346.417 201.553L332.778 198.203C331.978 198.007 331.406 198.964 331.96 199.575Z" fill="url(#paint11_linear_663_12342)"/>
<path d="M341.561 188.079L344.518 201.81C344.918 203.657 345.857 205.342 347.221 206.65L357.361 216.371C357.955 216.941 358.93 216.397 358.756 215.592L355.796 201.86C355.401 200.014 354.457 198.328 353.093 197.02L342.956 187.299C342.361 186.729 341.387 187.273 341.561 188.079Z" fill="url(#paint12_linear_663_12342)"/>
<path d="M349.121 185.386L348.423 199.415C348.331 201.302 348.802 203.173 349.782 204.789L357.06 216.804C357.486 217.508 358.568 217.235 358.609 216.412L359.304 202.382C359.4 200.497 358.925 198.624 357.946 197.007L350.669 184.994C350.243 184.29 349.161 184.563 349.121 185.386Z" fill="url(#paint13_linear_663_12342)"/>
<path d="M200.482 236.723L214.511 237.42C216.398 237.512 218.269 237.041 219.885 236.062L231.9 228.783C232.604 228.358 232.331 227.275 231.508 227.234L217.478 226.54C215.593 226.443 213.72 226.918 212.103 227.898L200.09 235.174C199.386 235.601 199.659 236.682 200.482 236.723Z" fill="url(#paint14_linear_663_12342)"/>
<path d="M200.309 221.736L212.109 229.354C213.698 230.378 215.553 230.905 217.443 230.865L231.487 230.569C232.309 230.553 232.615 229.479 231.922 229.032L220.119 221.416C218.534 220.389 216.675 219.864 214.785 219.904L200.744 220.199C199.92 220.216 199.616 221.289 200.309 221.736Z" fill="url(#paint15_linear_663_12342)"/>
<path d="M203.96 213.575L213.386 223.988C214.655 225.388 216.312 226.378 218.147 226.828L231.789 230.177C232.588 230.374 233.16 229.416 232.608 228.805L223.178 218.393C221.913 216.991 220.253 216.003 218.417 215.553L204.778 212.203C203.978 212.007 203.406 212.964 203.96 213.575Z" fill="url(#paint16_linear_663_12342)"/>
<path d="M213.561 202.079L216.518 215.81C216.918 217.657 217.857 219.342 219.221 220.65L229.361 230.371C229.955 230.941 230.93 230.397 230.756 229.592L227.796 215.86C227.401 214.014 226.457 212.328 225.093 211.02L214.956 201.299C214.361 200.729 213.387 201.273 213.561 202.079Z" fill="url(#paint17_linear_663_12342)"/>
<path d="M221.121 199.386L220.423 213.415C220.331 215.302 220.802 217.173 221.782 218.789L229.06 230.804C229.486 231.508 230.568 231.235 230.609 230.412L231.304 216.382C231.4 214.497 230.925 212.624 229.946 211.007L222.669 198.994C222.243 198.29 221.161 198.563 221.121 199.386Z" fill="url(#paint18_linear_663_12342)"/>
<path d="M27.4822 224.723L41.5107 225.42C43.3982 225.512 45.2689 225.041 46.8853 224.062L58.8997 216.783C59.6037 216.358 59.3311 215.275 58.5083 215.234L44.4782 214.54C42.5926 214.443 40.7196 214.918 39.1032 215.898L27.0902 223.174C26.3855 223.601 26.6588 224.682 27.4822 224.723Z" fill="url(#paint19_linear_663_12342)"/>
<path d="M27.3088 209.736L39.1092 217.354C40.6976 218.378 42.5534 218.905 44.4429 218.865L58.4868 218.569C59.3093 218.553 59.6145 217.479 58.9224 217.032L47.1193 209.416C45.5345 208.389 43.6749 207.864 41.7854 207.904L27.7438 208.199C26.9201 208.216 26.6161 209.289 27.3088 209.736Z" fill="url(#paint20_linear_663_12342)"/>
<path d="M30.9595 201.575L40.3861 211.988C41.6554 213.388 43.3116 214.378 45.147 214.828L58.789 218.177C59.5878 218.374 60.1605 217.416 59.6076 216.805L50.1781 206.393C48.9128 204.991 47.2525 204.003 45.4171 203.553L31.7776 200.203C30.9776 200.007 30.4061 200.964 30.9595 201.575Z" fill="url(#paint21_linear_663_12342)"/>
<path d="M40.5611 190.079L43.5184 203.81C43.9176 205.657 44.8572 207.342 46.2214 208.65L56.3613 218.371C56.9547 218.941 57.9297 218.397 57.7562 217.592L54.7961 203.86C54.4011 202.014 53.4574 200.328 52.0932 199.02L41.9558 189.299C41.3612 188.729 40.3873 189.273 40.5611 190.079Z" fill="url(#paint22_linear_663_12342)"/>
<path d="M48.1206 187.386L47.4233 201.415C47.3308 203.302 47.8023 205.173 48.7815 206.789L56.0599 218.804C56.4856 219.508 57.568 219.235 57.6089 218.412L58.3037 204.382C58.4 202.497 57.9249 200.624 56.9456 199.007L49.6695 186.994C49.2427 186.29 48.1613 186.563 48.1206 187.386Z" fill="url(#paint23_linear_663_12342)"/>
</g>
<defs>
<linearGradient id="paint0_linear_663_12342" x1="-24" y1="134.18" x2="472.497" y2="134.18" gradientUnits="userSpaceOnUse">
<stop offset="0.263314" stop-color="#1A8279"/>
<stop offset="1" stop-color="#629984" stop-opacity="0.16"/>
</linearGradient>
<linearGradient id="paint1_linear_663_12342" x1="262.911" y1="274.507" x2="389.444" y2="260.049" gradientUnits="userSpaceOnUse">
<stop stop-color="#28716E"/>
<stop offset="1" stop-color="#369C9A"/>
</linearGradient>
<linearGradient id="paint2_linear_663_12342" x1="50.0569" y1="283.111" x2="255.235" y2="255.695" gradientUnits="userSpaceOnUse">
<stop stop-color="#28716E"/>
<stop offset="1" stop-color="#369C9A"/>
</linearGradient>
<linearGradient id="paint3_linear_663_12342" x1="201.879" y1="258.545" x2="262.78" y2="254.195" gradientUnits="userSpaceOnUse">
<stop stop-color="#28716E"/>
<stop offset="1" stop-color="#369C9A"/>
</linearGradient>
<linearGradient id="paint4_linear_663_12342" x1="357.642" y1="209.751" x2="374.787" y2="192.606" gradientUnits="userSpaceOnUse">
<stop stop-color="#FCD064"/>
<stop offset="1" stop-color="#F8A30D"/>
</linearGradient>
<linearGradient id="paint5_linear_663_12342" x1="356.237" y1="197.952" x2="379.657" y2="191.676" gradientUnits="userSpaceOnUse">
<stop stop-color="#FCD064"/>
<stop offset="1" stop-color="#F8A30D"/>
</linearGradient>
<linearGradient id="paint6_linear_663_12342" x1="358.953" y1="191.279" x2="383.199" y2="191.279" gradientUnits="userSpaceOnUse">
<stop stop-color="#FCD064"/>
<stop offset="1" stop-color="#F8A30D"/>
</linearGradient>
<linearGradient id="paint7_linear_663_12342" x1="365.646" y1="180.974" x2="386.644" y2="193.097" gradientUnits="userSpaceOnUse">
<stop stop-color="#FCD064"/>
<stop offset="1" stop-color="#F8A30D"/>
</linearGradient>
<linearGradient id="paint8_linear_663_12342" x1="371.395" y1="178.463" x2="388.54" y2="195.608" gradientUnits="userSpaceOnUse">
<stop stop-color="#FCD064"/>
<stop offset="1" stop-color="#F8A30D"/>
</linearGradient>
<linearGradient id="paint9_linear_663_12342" x1="337.783" y1="228.39" x2="350.206" y2="207.568" gradientUnits="userSpaceOnUse">
<stop stop-color="#FCD064"/>
<stop offset="1" stop-color="#F8A30D"/>
</linearGradient>
<linearGradient id="paint10_linear_663_12342" x1="333.53" y1="217.295" x2="354.699" y2="205.474" gradientUnits="userSpaceOnUse">
<stop stop-color="#FCD064"/>
<stop offset="1" stop-color="#F8A30D"/>
</linearGradient>
<linearGradient id="paint11_linear_663_12342" x1="334.529" y1="210.16" x2="358.036" y2="204.221" gradientUnits="userSpaceOnUse">
<stop stop-color="#FCD064"/>
<stop offset="1" stop-color="#F8A30D"/>
</linearGradient>
<linearGradient id="paint12_linear_663_12342" x1="338.494" y1="198.53" x2="361.822" y2="205.14" gradientUnits="userSpaceOnUse">
<stop stop-color="#FCD064"/>
<stop offset="1" stop-color="#F8A30D"/>
</linearGradient>
<linearGradient id="paint13_linear_663_12342" x1="343.453" y1="194.687" x2="364.275" y2="207.11" gradientUnits="userSpaceOnUse">
<stop stop-color="#FCD064"/>
<stop offset="1" stop-color="#F8A30D"/>
</linearGradient>
<linearGradient id="paint14_linear_663_12342" x1="209.783" y1="242.39" x2="222.206" y2="221.568" gradientUnits="userSpaceOnUse">
<stop stop-color="#FCD064"/>
<stop offset="1" stop-color="#F8A30D"/>
</linearGradient>
<linearGradient id="paint15_linear_663_12342" x1="205.53" y1="231.295" x2="226.699" y2="219.474" gradientUnits="userSpaceOnUse">
<stop stop-color="#FCD064"/>
<stop offset="1" stop-color="#F8A30D"/>
</linearGradient>
<linearGradient id="paint16_linear_663_12342" x1="206.529" y1="224.16" x2="230.036" y2="218.221" gradientUnits="userSpaceOnUse">
<stop stop-color="#FCD064"/>
<stop offset="1" stop-color="#F8A30D"/>
</linearGradient>
<linearGradient id="paint17_linear_663_12342" x1="210.494" y1="212.53" x2="233.822" y2="219.14" gradientUnits="userSpaceOnUse">
<stop stop-color="#FCD064"/>
<stop offset="1" stop-color="#F8A30D"/>
</linearGradient>
<linearGradient id="paint18_linear_663_12342" x1="215.453" y1="208.687" x2="236.275" y2="221.11" gradientUnits="userSpaceOnUse">
<stop stop-color="#FCD064"/>
<stop offset="1" stop-color="#F8A30D"/>
</linearGradient>
<linearGradient id="paint19_linear_663_12342" x1="36.7833" y1="230.39" x2="49.2058" y2="209.568" gradientUnits="userSpaceOnUse">
<stop stop-color="#FCD064"/>
<stop offset="1" stop-color="#F8A30D"/>
</linearGradient>
<linearGradient id="paint20_linear_663_12342" x1="32.5299" y1="219.295" x2="53.6993" y2="207.474" gradientUnits="userSpaceOnUse">
<stop stop-color="#FCD064"/>
<stop offset="1" stop-color="#F8A30D"/>
</linearGradient>
<linearGradient id="paint21_linear_663_12342" x1="33.5287" y1="212.16" x2="57.0363" y2="206.221" gradientUnits="userSpaceOnUse">
<stop stop-color="#FCD064"/>
<stop offset="1" stop-color="#F8A30D"/>
</linearGradient>
<linearGradient id="paint22_linear_663_12342" x1="37.4938" y1="200.53" x2="60.8217" y2="207.14" gradientUnits="userSpaceOnUse">
<stop stop-color="#FCD064"/>
<stop offset="1" stop-color="#F8A30D"/>
</linearGradient>
<linearGradient id="paint23_linear_663_12342" x1="42.4529" y1="196.687" x2="63.2751" y2="209.11" gradientUnits="userSpaceOnUse">
<stop stop-color="#FCD064"/>
<stop offset="1" stop-color="#F8A30D"/>
</linearGradient>
<clipPath id="clip0_663_12342">
<rect width="500.5" height="267.639" fill="white" transform="translate(-28 0.36084)"/>
</clipPath>
</defs>
</svg>
