<svg width="18" height="18" viewBox="0 0 18 18" fill="none" xmlns="http://www.w3.org/2000/svg">
<path d="M16.2 7.65H9.14999V10.425H13.275C13.2 11.1 12.75 12.15 11.775 12.825C11.175 13.275 10.275 13.575 9.14999 13.575C7.19999 13.575 5.47499 12.3 4.87499 10.425C4.72499 9.975 4.64999 9.45 4.64999 8.925C4.64999 8.4 4.72499 7.875 4.87499 7.425C4.94999 7.275 4.94999 7.125 5.02499 7.05C5.69999 5.475 7.27499 4.35 9.14999 4.35C10.575 4.35 11.475 4.95 12.075 5.475L14.175 3.375C12.9 2.25 11.175 1.5 9.14999 1.5C6.22499 1.5 3.67499 3.15 2.47499 5.625C1.94999 6.675 1.64999 7.8 1.64999 9C1.64999 10.2 1.94999 11.325 2.47499 12.375C3.67499 14.85 6.22499 16.5 9.14999 16.5C11.175 16.5 12.9 15.825 14.1 14.7C15.525 13.425 16.35 11.475 16.35 9.15C16.35 8.55 16.275 8.1 16.2 7.65Z" stroke="#17191C" stroke-width="1.5" stroke-miterlimit="10" stroke-linecap="round" stroke-linejoin="round"/>
</svg>
