<svg width="32" height="32" viewBox="0 0 32 32" fill="none" xmlns="http://www.w3.org/2000/svg">
<path d="M29.4073 13.722H28.3333V13.6667H16.3333V19H23.8687C22.7693 22.1047 19.8153 24.3333 16.3333 24.3333C11.9153 24.3333 8.33333 20.7513 8.33333 16.3333C8.33333 11.9153 11.9153 8.33333 16.3333 8.33333C18.3727 8.33333 20.228 9.10267 21.6407 10.3593L25.412 6.588C23.0307 4.36867 19.8453 3 16.3333 3C8.97 3 3 8.97 3 16.3333C3 23.6967 8.97 29.6667 16.3333 29.6667C23.6967 29.6667 29.6667 23.6967 29.6667 16.3333C29.6667 15.4393 29.5747 14.5667 29.4073 13.722Z" fill="#FFC107"/>
<path d="M4.53735 10.1273L8.91802 13.34C10.1034 10.4053 12.974 8.33333 16.3334 8.33333C18.3727 8.33333 20.228 9.10267 21.6407 10.3593L25.412 6.588C23.0307 4.36867 19.8454 3 16.3334 3C11.212 3 6.77069 5.89133 4.53735 10.1273Z" fill="#FF3D00"/>
<path d="M16.3334 29.6666C19.7774 29.6666 22.9067 28.3486 25.2727 26.2052L21.146 22.7132C19.7624 23.7655 18.0717 24.3346 16.3334 24.3332C12.8654 24.3332 9.92071 22.1219 8.81138 19.0359L4.46338 22.3859C6.67005 26.7039 11.1514 29.6666 16.3334 29.6666Z" fill="#4CAF50"/>
<path d="M29.4074 13.722H28.3334V13.6666H16.3334V19H23.8687C23.3428 20.4776 22.3956 21.7687 21.144 22.714L21.146 22.7126L25.2727 26.2046C24.9807 26.47 29.6667 23 29.6667 16.3333C29.6667 15.4393 29.5747 14.5666 29.4074 13.722Z" fill="#1976D2"/>
</svg>
