<svg width="24" height="24" viewBox="0 0 24 24" fill="none" xmlns="http://www.w3.org/2000/svg">
<path d="M14.55 2H9.45001C7.65001 2 7.25002 2.90001 7.02002 4.01001L6.20001 7.92999H17.8L16.98 4.01001C16.75 2.90001 16.35 2 14.55 2Z" stroke="#292D32" strokeWidth="1.5" strokeLinecap="round" strokeLinejoin="round"/>
<path d="M19.24 14.3199C19.32 15.1699 18.64 15.9 17.77 15.9H16.41C15.63 15.9 15.52 15.57 15.38 15.15L15.23 14.7199C15.03 14.1299 14.9 13.7299 13.85 13.7299H10.14C9.09999 13.7299 8.93999 14.1799 8.75999 14.7199L8.60999 15.15C8.46999 15.56 8.35999 15.9 7.57999 15.9H6.21999C5.34999 15.9 4.66999 15.1699 4.74999 14.3199L5.16 9.89996C5.26 8.80996 5.46999 7.91992 7.36999 7.91992H16.62C18.52 7.91992 18.73 8.80996 18.83 9.89996L19.24 14.3199Z" stroke="#292D32" strokeWidth="1.5" strokeLinecap="round" strokeLinejoin="round"/>
<path d="M6.19997 5.75H5.46997" stroke="#292D32" strokeWidth="1.5" strokeLinecap="round" strokeLinejoin="round"/>
<path d="M18.53 5.75H17.8" stroke="#292D32" strokeWidth="1.5" strokeLinecap="round" strokeLinejoin="round"/>
<path d="M7.65002 10.8301H9.82004" stroke="#292D32" strokeWidth="1.5" strokeLinecap="round" strokeLinejoin="round"/>
<path d="M14.18 10.8301H16.35" stroke="#292D32" strokeWidth="1.5" strokeLinecap="round" strokeLinejoin="round"/>
<path d="M12 17V18" stroke="#292D32" strokeWidth="1.5" strokeLinecap="round" strokeLinejoin="round"/>
<path d="M12 21V22" stroke="#292D32" strokeWidth="1.5" strokeLinecap="round" strokeLinejoin="round"/>
<path d="M3 18L2 22" stroke="#292D32" strokeWidth="1.5" strokeLinecap="round" strokeLinejoin="round"/>
<path d="M21 18L22 22" stroke="#292D32" strokeWidth="1.5" strokeLinecap="round" strokeLinejoin="round"/>
</svg>
