<svg width="32" height="32" viewBox="0 0 32 32" fill="none" xmlns="http://www.w3.org/2000/svg">
<path d="M20.7867 16.3466C24.5643 16.3466 27.6267 13.2843 27.6267 9.50663C27.6267 5.729 24.5643 2.66663 20.7867 2.66663C17.009 2.66663 13.9467 5.729 13.9467 9.50663C13.9467 13.2843 17.009 16.3466 20.7867 16.3466Z" stroke="#292D32" strokeWidth="1.5" strokeMiterlimit="10"/>
<path d="M8.48 25.92C10.7481 25.92 12.5867 24.0814 12.5867 21.8133C12.5867 19.5453 10.7481 17.7067 8.48 17.7067C6.21195 17.7067 4.37335 19.5453 4.37335 21.8133C4.37335 24.0814 6.21195 25.92 8.48 25.92Z" stroke="#292D32" strokeWidth="1.5" strokeMiterlimit="10"/>
<path d="M22.16 29.3334C24.0452 29.3334 25.5734 27.8052 25.5734 25.92C25.5734 24.0349 24.0452 22.5067 22.16 22.5067C20.2749 22.5067 18.7467 24.0349 18.7467 25.92C18.7467 27.8052 20.2749 29.3334 22.16 29.3334Z" stroke="#292D32" strokeWidth="1.5" strokeMiterlimit="10"/>
</svg>
