<svg width="24" height="24" viewBox="0 0 24 24" fill="none" xmlns="http://www.w3.org/2000/svg">
<path d="M22 21.25H21V15C21 10.03 16.97 6 12 6C7.03 6 3 10.03 3 15V21.25H2C1.59 21.25 1.25 21.59 1.25 22C1.25 22.41 1.59 22.75 2 22.75H22C22.41 22.75 22.75 22.41 22.75 22C22.75 21.59 22.41 21.25 22 21.25Z" fill="#292D32"/>
<path d="M12 3.75C11.59 3.75 11.25 3.41 11.25 3V2C11.25 1.59 11.59 1.25 12 1.25C12.41 1.25 12.75 1.59 12.75 2V3C12.75 3.41 12.41 3.75 12 3.75Z" fill="#292D32"/>
<path d="M5 5.75006C4.81 5.75006 4.62 5.68006 4.47 5.53006L3.47 4.53006C3.18 4.24006 3.18 3.76006 3.47 3.47006C3.76 3.18006 4.24 3.18006 4.53 3.47006L5.53 4.47006C5.82 4.76006 5.82 5.24006 5.53 5.53006C5.38 5.68006 5.19 5.75006 5 5.75006Z" fill="#292D32"/>
<path d="M19 5.75006C18.81 5.75006 18.62 5.68006 18.47 5.53006C18.18 5.24006 18.18 4.76006 18.47 4.47006L19.47 3.47006C19.76 3.18006 20.24 3.18006 20.53 3.47006C20.82 3.76006 20.82 4.24006 20.53 4.53006L19.53 5.53006C19.38 5.68006 19.19 5.75006 19 5.75006Z" fill="#292D32"/>
</svg>
